<svg xmlns="http://www.w3.org/2000/svg" viewBox="0 0 448.11 448.09">
  <title>Asset 1</title>
  <g id="Layer_2" data-name="Layer 2">
    <g id="Layer_1-2" data-name="Layer 1">
      <g id="Layer_1-2-2" data-name="Layer 1-2">
        <g>
          <path d="M448,.27c-21.72,21.21-42.89,43-64.52,64.3-1.05,1.23-2.26-.16-3.09-.85A222.8,222.8,0,0,0,176.16,5.29C107.49,20,47.35,69.35,19.72,133.9h.09a33.45,33.45,0,0,0,59.68,30.23,34.11,34.11,0,0,0,2.72-7.45c19.76-42,58.84-74.45,104-85.53,52.2-13.17,111.37,1.33,149.4,40-22,21.83-44.39,43.34-66.33,65.26,59.52-.32,119.06-.14,178.59-.09C448.34,117.7,448,59,448,.27Z" style="fill: #657ed4"/>
          <path d="M399.66,265.59a33.44,33.44,0,0,0-31.59,22.5h0C349,330.68,310.5,364.31,265.23,376.27c-52.8,14.31-113.45.3-152.18-39,21.92-21.76,44.37-43,66.19-64.87q-89.55.06-179.11,0-.24,87.84,0,175.74C22,426.18,43.86,404.18,65.9,382.39a232.54,232.54,0,0,0,46.92,35.87c54.74,32,123.4,38.6,183.3,17.89C353.6,416.85,402.19,373,427.33,317.83a33.45,33.45,0,0,0-27.67-52.24Z" style="fill: #657ed4"/>
        </g>
      </g>
    </g>
  </g>
</svg>
